<!--?xml version="1.0" encoding="utf-8"?-->
<!-- Generator: Adobe Illustrator 18.1.1, SVG Export Plug-In . SVG Version: 6.00 Build 0)  -->

<svg version="1.1" id="_x32_" xmlns="http://www.w3.org/2000/svg" xmlns:xlink="http://www.w3.org/1999/xlink" x="0px" y="0px" viewBox="0 0 512 512" width="100%" height="100%" style="opacity: 1;" xml:space="preserve">
	<linearGradient id="goldGradient" x1="0%" y1="0%" x2="100%" y2="100%">
		<stop offset="0%" style="stop-color:#e2c02c"/>
		<stop offset="50%" style="stop-color:#fff4d1"/>
		<stop offset="100%" style="stop-color:#d0a900"/>
	</linearGradient>
	<style type="text/css">
		.gold{fill:url(#goldGradient);}
	</style>
<g>
	<path class="gold" d="M243.358,82.765h25.27c0,0-1.722-18.991-1.722-29.826c10.817,0,31.13,3.087,31.13,3.087V28.034
		c0,0-20.314,3.096-31.13,3.096c0-10.826,3.078-31.13,3.078-31.13H242c0,0,3.096,20.304,3.096,31.13
		c-10.835,0-31.13-3.087-31.13-3.087v27.992c0,0,20.296-3.096,31.13-3.096C245.096,63.774,243.358,82.765,243.358,82.765z"></path>
	<path class="gold" d="M202.818,227.026h106.365c0,0,18.766-52.278,25.027-79.217c2.139-9.244-6.261-20.592-20.348-20.592
		c-14.069,0-57.86,0-57.86,0s-43.808,0-57.878,0c-14.086,0-22.487,11.348-20.33,20.592
		C184.036,174.748,202.818,227.026,202.818,227.026z"></path>
	<path class="gold" d="M331.253,375.087c-27.026-43-29.357-86.217-29.357-86.217h-91.809c0,0-2.33,43.217-29.339,86.217
		c-17.148,27.261-41.374,34.835-39.739,63.748c0.748,13.391,13.617,16.096,13.617,16.096h202.731c0,0,12.887-2.704,13.635-16.096
		C372.61,409.922,348.383,402.348,331.253,375.087z"></path>
	<path class="gold" d="M311.392,241.165H200.61c0,8.392-8.087,14.391-16.157,19.183c-8.087,4.8-6.069,14.391,0,14.391h143.096
		c6.052,0,8.07-9.592,0-14.391C319.461,255.556,311.392,249.557,311.392,241.165z"></path>
	<rect x="224.192" y="96.895" class="gold" width="63.6" height="16.183"></rect>
	<polygon class="gold" points="154.626,469.07 143.531,487.774 143.531,512 368.47,512 368.47,487.774 357.357,469.07 	"></polygon>
</g>
</svg>
